<?xml version="1.0" encoding="UTF-8" standalone="no"?>
<!-- Created with Inkscape (http://www.inkscape.org/) -->

<svg
   width="39.109653mm"
   height="40.623119mm"
   viewBox="0 0 39.109653 40.62312"
   version="1.1"
   id="svg1"
   xml:space="preserve"
   inkscape:version="1.3.2 (091e20e, 2023-11-25, custom)"
   sodipodi:docname="valley.svg"
   xmlns:inkscape="http://www.inkscape.org/namespaces/inkscape"
   xmlns:sodipodi="http://sodipodi.sourceforge.net/DTD/sodipodi-0.dtd"
   xmlns="http://www.w3.org/2000/svg"
   xmlns:svg="http://www.w3.org/2000/svg"><sodipodi:namedview
     id="namedview1"
     pagecolor="#ffffff"
     bordercolor="#000000"
     borderopacity="0.25"
     inkscape:showpageshadow="2"
     inkscape:pageopacity="0.0"
     inkscape:pagecheckerboard="0"
     inkscape:deskcolor="#d1d1d1"
     inkscape:document-units="mm"
     inkscape:zoom="2.768771"
     inkscape:cx="77.832366"
     inkscape:cy="77.110023"
     inkscape:window-width="1920"
     inkscape:window-height="991"
     inkscape:window-x="-9"
     inkscape:window-y="-9"
     inkscape:window-maximized="1"
     inkscape:current-layer="layer1" /><defs
     id="defs1" /><g
     inkscape:label="Layer 1"
     inkscape:groupmode="layer"
     id="layer1"
     transform="translate(-85.500869,-183.81824)"><path
       style="fill:#000000;stroke-width:1"
       d="m 103.69667,221.64315 c -0.22765,-0.0316 -0.78641,-0.10902 -1.2417,-0.17213 -3.879974,-0.53784 -7.582782,-2.4511 -10.591621,-5.47272 -3.393465,-3.40788 -5.380132,-7.42377 -6.043624,-12.2167 -0.145396,-1.05031 -0.168267,-4.02911 -0.03867,-5.03581 0.218847,-1.69992 0.305701,-2.15283 0.394659,-2.05795 0.0474,0.0506 2.003472,2.88575 4.346827,6.30045 2.343356,3.41469 4.731629,6.89147 5.307274,7.72617 0.575644,0.83471 1.5555,2.25871 2.177458,3.16446 0.621959,0.90576 1.141661,1.61435 1.154893,1.57465 0.02106,-0.0632 -1.701433,-3.04763 -3.68966,-6.39269 -0.433109,-0.72868 -0.634841,-1.13124 -0.595794,-1.18893 0.03247,-0.048 0.586758,-0.42224 1.231754,-0.83171 1.598568,-1.01482 1.6929,-1.07135 1.728326,-1.03593 0.01702,0.017 -0.203527,0.55185 -0.49014,1.18846 -0.28661,0.63662 -0.511103,1.1675 -0.498872,1.17974 0.01223,0.0122 0.487262,-0.71969 1.055628,-1.62647 0.568363,-0.9068 1.049692,-1.64985 1.069616,-1.65123 0.01992,-9.6e-4 0.234941,0.43984 0.477808,0.9805 1.630858,3.63051 2.987578,5.82729 4.691418,7.59629 0.56245,0.58396 1.5918,1.4923 1.6911,1.4923 0.0258,0 -0.0899,-0.16297 -0.25715,-0.36216 -0.89788,-1.06923 -1.50012,-1.8655 -1.50012,-1.98342 0,-0.31381 0.17376,-0.29426 2.49249,0.28045 3.51457,0.8711 4.00044,1.03081 4.45761,1.46525 0.43065,0.40923 0.25293,0.6689 -0.70895,1.03589 -0.3425,0.13066 -0.85469,0.28737 -1.13823,0.34823 -0.92734,0.19904 -3.33391,0.48985 -6.93098,0.83754 -2.04162,0.19734 -4.093799,0.45902 -4.877746,0.62197 -0.695155,0.14449 -1.227317,0.30252 -1.227317,0.36444 0,0.0708 0.04847,0.0891 3.41469,1.28648 3.435123,1.22194 3.647873,1.30526 4.284163,1.67762 0.54514,0.31904 0.7561,0.5219 0.823,0.79146 0.0462,0.18595 0.0412,0.18954 -0.25358,0.18129 -0.16536,-0.005 -0.48691,-0.0343 -0.71456,-0.0657 z m 6.7627,-1.07702 c -0.39136,-0.1078 -3.28483,-0.9871 -3.52641,-1.07164 -0.2892,-0.10121 -0.7983,-0.46299 -0.75351,-0.53547 0.0138,-0.0223 0.16613,-0.11097 0.33858,-0.19709 0.22538,-0.11257 0.92983,-0.26083 2.50569,-0.52739 2.75383,-0.4658 3.70028,-0.667 4.74342,-1.00837 1.46611,-0.47981 2.78188,-1.24982 3.19034,-1.86705 0.46826,-0.70759 0.0737,-1.38383 -1.08182,-1.85407 -0.69704,-0.28366 -1.44039,-0.42198 -4.41833,-0.8221 -2.97966,-0.40036 -3.50457,-0.49486 -4.17129,-0.75094 -0.41992,-0.16129 -0.48511,-0.20926 -0.48511,-0.35702 0,-0.13312 0.0683,-0.20515 0.31043,-0.32725 0.52014,-0.26231 3.66713,-1.61452 3.69428,-1.58737 0.014,0.014 -0.10055,0.23574 -0.2545,0.49281 -0.15396,0.25708 -0.26544,0.4819 -0.24772,0.49961 0.0454,0.0454 1.15665,-1.16926 1.93144,-2.11132 0.91506,-1.11259 1.85503,-2.41196 3.16527,-4.37558 0.62013,-0.92935 1.1488,-1.69092 1.17483,-1.69236 0.0698,-0.004 1.57382,1.92856 1.57362,2.02183 -9e-5,0.0438 -0.23543,0.49863 -0.52298,1.01083 -2.14446,3.81992 -3.0025,5.39278 -2.97953,5.46171 0.0147,0.044 0.16188,-0.13478 0.32717,-0.39719 0.28214,-0.44793 2.25873,-3.54549 6.09299,-9.54845 0.90877,-1.42279 1.90462,-2.98265 2.21299,-3.46634 0.30838,-0.48369 0.58138,-0.87948 0.6067,-0.87954 0.10431,-2.1e-4 0.35988,1.63077 0.46907,2.99346 0.32332,4.03543 -0.56551,8.00766 -2.58139,11.53628 -2.21662,3.88 -5.06749,6.63834 -8.79365,8.50821 -1.37651,0.69076 -2.1528,0.95311 -2.52058,0.8518 z m 7.41837,-17.08762 c -0.27,-0.40241 -0.4514,-0.73117 -0.40313,-0.73058 0.0483,5.3e-4 0.37659,0.158 0.72959,0.34977 l 0.64181,0.34867 -0.18535,0.32283 c -0.10194,0.17756 -0.20935,0.34941 -0.23868,0.3819 -0.0294,0.0325 -0.27426,-0.27018 -0.54424,-0.67259 z"
       id="path3" /></g></svg>
