<?xml version="1.0" encoding="UTF-8" standalone="no"?>
<!-- Created with Inkscape (http://www.inkscape.org/) -->

<svg
   width="39.109653mm"
   height="40.623119mm"
   viewBox="0 0 39.109653 40.62312"
   version="1.1"
   id="svg1"
   xml:space="preserve"
   inkscape:version="1.3.2 (091e20e, 2023-11-25, custom)"
   sodipodi:docname="mountain-full.svg"
   xmlns:inkscape="http://www.inkscape.org/namespaces/inkscape"
   xmlns:sodipodi="http://sodipodi.sourceforge.net/DTD/sodipodi-0.dtd"
   xmlns="http://www.w3.org/2000/svg"
   xmlns:svg="http://www.w3.org/2000/svg"><sodipodi:namedview
     id="namedview1"
     pagecolor="#ffffff"
     bordercolor="#000000"
     borderopacity="0.25"
     inkscape:showpageshadow="2"
     inkscape:pageopacity="0.0"
     inkscape:pagecheckerboard="0"
     inkscape:deskcolor="#d1d1d1"
     inkscape:document-units="mm"
     inkscape:zoom="1.9578168"
     inkscape:cx="-25.283265"
     inkscape:cy="48.268051"
     inkscape:window-width="1920"
     inkscape:window-height="991"
     inkscape:window-x="-9"
     inkscape:window-y="-9"
     inkscape:window-maximized="1"
     inkscape:current-layer="layer1" /><defs
     id="defs1" /><g
     inkscape:label="Layer 1"
     inkscape:groupmode="layer"
     id="layer1"
     transform="translate(-85.500869,-183.81824)"><g
       id="g2"
       transform="matrix(0.85932311,0,0,1.02957,12.027997,-5.751279)"
       style="stroke-width:1.06315"><path
         style="fill:#ffffff;stroke-width:1.06314"
         d="m 88.670638,219.48888 c 3.025694,-3.90675 3.211141,-4.09447 4.080222,-4.12988 0.500748,-0.0205 1.02784,-0.0516 1.171315,-0.0693 0.682187,-0.0844 1.925668,-1.96162 4.248758,-6.41421 2.343167,-4.49109 2.818387,-5.2135 6.326537,-9.61737 l 3.79308,-4.76154 3.82814,4.42567 c 3.99508,4.61866 4.43253,5.27748 8.54348,12.86674 l 2.25455,4.16214 1.71367,1.02512 c 1.33943,0.80124 2.2235,1.63354 4.04815,3.8111 l 2.33449,2.78599 -22.75608,0.004 -22.756082,0.004 z"
         id="path2"
         sodipodi:nodetypes="cccsscsscsscccc" /><path
         style="fill:#000000;stroke-width:1.06314"
         d="m 88.670638,219.48888 c 3.025694,-3.90675 3.211141,-4.09447 4.080222,-4.12988 0.500748,-0.0205 1.02784,-0.0516 1.171315,-0.0693 0.682187,-0.0844 1.925668,-1.96162 4.248758,-6.41421 2.343167,-4.49109 2.818387,-5.2135 6.326537,-9.61737 l 3.79308,-4.76154 3.82814,4.42567 c 3.99508,4.61866 4.43253,5.27748 8.54348,12.86674 l 2.25455,4.16214 1.71367,1.02512 c 1.33943,0.80124 2.2235,1.63354 4.04815,3.8111 l 2.33449,2.78599 -22.75608,0.004 -22.756082,0.004 z m 4.787291,-1.83196 c 0.587393,0.48034 0.593166,0.4787 0.439902,-0.12398 -0.09729,-0.38257 -0.06176,-0.61072 0.09512,-0.61072 0.137735,0 0.188599,-0.12486 0.113021,-0.27747 -0.314712,-0.63552 -1.36298,-0.27077 -2.124115,0.7391 l -0.766193,1.01659 0.823527,-0.61513 c 0.795798,-0.5944 0.843569,-0.59872 1.418735,-0.12839 z m 9.058631,-1.61064 c 0.36616,1.3487 0.74103,2.34762 0.83304,2.2198 0.092,-0.12781 0.51374,-2.33346 1.47573,-4.74985 l 6.92952,-2.92948 1.94178,2.57513 1.94178,2.57514 -1.2219,-3.71945 c -0.67204,-2.04568 -1.02215,-3.35528 -0.96712,-3.42395 0.055,-0.0687 1.02707,0.3838 2.3492,1.51926 3.09893,2.66137 3.16395,2.70487 2.51056,1.67954 -0.97947,-1.53705 -9.97034,-16.19676 -10.08511,-16.21117 -0.0612,-0.007 -1.5869,2.6105 -3.39056,5.81817 l -5.703165,10.68952 0.0174,4.22102 0.0174,4.22102 1.342855,-3.46845 1.34284,-3.46845 z"
         id="path1"
         sodipodi:nodetypes="cccsscsscssccccssssscsssssscccsssscscccccs" /></g><path
       style="fill:#000000;stroke-width:1;stroke-dasharray:7.99999, 1"
       d="m 105.97659,197.23989 7.83473,-13.42165 8.3922,5.43634 -2.68883,4.0013 -6.13552,-3.92445 -5.68266,9.26126 z"
       id="path3"
       sodipodi:nodetypes="ccccccc" /></g></svg>
